<?xml version="1.0" encoding="UTF-8"?>
<svg width="22px" height="22px" viewBox="0 0 22 22" version="1.1" xmlns="http://www.w3.org/2000/svg" xmlns:xlink="http://www.w3.org/1999/xlink">
    <!-- Generator: Sketch 54.1 (76490) - https://sketchapp.com -->
    <title>ic_view_in_ar_blue_24px</title>
    <desc>Created with Sketch.</desc>
    <g id="Symbols" stroke="none" stroke-width="1" fill="none" fill-rule="evenodd">
        <g id="ic_view_in_ar_24px" transform="translate(-1.000000, -1.000000)">
            <g id="ic_view_in_ar_blue_24px">
                <rect id="Bounding_Box" x="0" y="0" width="24" height="24"></rect>
                <g id="Art_layer" transform="translate(1.000000, 1.000000)" fill="#1a73e8" fill-rule="nonzero">
                    <path d="M2,3 C2,2.45 2.45,2 3,2 L5,2 L5,0 L3,0 C1.35,0 0,1.35 0,3 L0,5 L2,5 L2,3 Z" id="Path"></path>
                    <path d="M19,2 C19.55,2 20,2.45 20,3 L20,5 L22,5 L22,3 C22,1.35 20.65,0 19,0 L17,0 L17,2 L19,2 Z" id="Path"></path>
                    <path d="M3,20 C2.45,20 2,19.55 2,19 L2,17 L0,17 L0,19 C0,20.65 1.35,22 3,22 L5,22 L5,20 L3,20 Z" id="Path"></path>
                    <path d="M19,20 C19.55,20 20,19.55 20,19 L20,17 L22,17 L22,19 C22,20.65 20.65,22 19,22 L17,22 L17,20 L19,20 Z" id="Path"></path>
                    <path d="M17.25,6.6 L11.75,3.42 C11.29,3.15 10.71,3.15 10.25,3.42 L4.75,6.6 C4.29,6.87 4,7.36 4,7.9 L4,14.25 C4,14.79 4.29,15.28 4.75,15.55 L10.25,18.73 C10.71,19 11.29,19 11.75,18.73 L17.25,15.55 C17.71,15.28 18,14.79 18,14.25 L18,7.9 C18,7.36 17.71,6.87 17.25,6.6 Z M6,13.96 L6,9.34 L10,11.66 L10,16.27 L6,13.96 Z M11,9.93 L7,7.61 L11,5.3 L15,7.61 L11,9.93 Z M12,16.27 L12,11.66 L16,9.34 L16,13.96 L12,16.27 Z" id="Shape"></path>
                </g>
            </g>
        </g>
    </g>
</svg>
